<svg width="10" height="16" viewBox="0 0 10 16" fill="none" xmlns="http://www.w3.org/2000/svg">
<path fill-rule="evenodd" clip-rule="evenodd" d="M4.07578 1.35936C4.83694 0.591855 5.8699 0.160156 6.94757 0.160156H9.17898C9.36726 0.160156 9.51989 0.312786 9.51989 0.501065V3.50107C9.51989 3.68934 9.36726 3.84197 9.17898 3.84197H6.94757C6.84164 3.84197 6.73946 3.88438 6.66368 3.96079C6.58781 4.0373 6.54468 4.14166 6.54468 4.25107V6.16016H9.17898C9.28384 6.16016 9.38287 6.20841 9.44748 6.291C9.51209 6.37359 9.5351 6.48132 9.50987 6.5831L8.76607 9.5831C8.72836 9.73518 8.59185 9.84198 8.43518 9.84198H6.54468V15.5011C6.54468 15.6893 6.39205 15.842 6.20377 15.842H3.22856C3.04028 15.842 2.88765 15.6893 2.88765 15.5011V9.84198H0.997159C0.80888 9.84198 0.65625 9.68934 0.65625 9.50107V6.50107C0.65625 6.31279 0.80888 6.16016 0.997159 6.16016H2.88765V4.25107C2.88765 3.167 3.31471 2.12677 4.07578 1.35936ZM6.94757 0.841974C6.05256 0.841974 5.19363 1.20045 4.55989 1.83947C3.92606 2.47859 3.56947 3.34601 3.56947 4.25107V6.50107C3.56947 6.68934 3.41684 6.84197 3.22856 6.84197H1.33807V9.16016H3.22856C3.41684 9.16016 3.56947 9.31279 3.56947 9.50107V15.1602H5.86286V9.50107C5.86286 9.31279 6.01549 9.16016 6.20377 9.16016H8.16847L8.74322 6.84197H6.20377C6.01549 6.84197 5.86286 6.68934 5.86286 6.50107V4.25107C5.86286 3.96265 5.97646 3.68548 6.17957 3.48068C6.38277 3.27578 6.65897 3.16016 6.94757 3.16016H8.83807V0.841974H6.94757Z" fill="#C3C6B6"/>
</svg>
