<svg width="17" height="16" viewBox="0 0 17 16" fill="none" xmlns="http://www.w3.org/2000/svg">
<path fill-rule="evenodd" clip-rule="evenodd" d="M4.9308 1.35547C3.2345 1.35547 1.85938 2.73059 1.85938 4.4269V11.5698C1.85938 13.2661 3.2345 14.6412 4.9308 14.6412H12.0737C13.77 14.6412 15.1451 13.2661 15.1451 11.5698V4.4269C15.1451 2.73059 13.77 1.35547 12.0737 1.35547H4.9308ZM0.859375 4.4269C0.859375 2.17831 2.68222 0.355469 4.9308 0.355469H12.0737C14.3222 0.355469 16.1451 2.17831 16.1451 4.4269V11.5698C16.1451 13.8183 14.3222 15.6412 12.0737 15.6412H4.9308C2.68222 15.6412 0.859375 13.8183 0.859375 11.5698V4.4269ZM8.87889 5.63564C8.38846 5.56292 7.88758 5.64669 7.4475 5.87503C7.00743 6.10338 6.65056 6.46468 6.42765 6.90754C6.20475 7.3504 6.12716 7.85227 6.20593 8.34177C6.28469 8.83126 6.5158 9.28346 6.86638 9.63404C7.21696 9.98462 7.66916 10.2157 8.15866 10.2945C8.64815 10.3733 9.15002 10.2957 9.59288 10.0728C10.0357 9.84987 10.397 9.493 10.6254 9.05292C10.8537 8.61284 10.9375 8.11196 10.8648 7.62153C10.7906 7.12128 10.5575 6.65814 10.1999 6.30054C9.84228 5.94293 9.37915 5.70982 8.87889 5.63564ZM6.98693 4.98741C7.61371 4.66219 8.32708 4.54288 9.02557 4.64646C9.73806 4.75211 10.3977 5.08411 10.907 5.59343C11.4163 6.10274 11.7483 6.76236 11.854 7.47485C11.9575 8.17334 11.8382 8.88671 11.513 9.51349C11.1878 10.1403 10.6732 10.6485 10.0425 10.966C9.41173 11.2835 8.69695 11.394 7.99978 11.2818C7.30262 11.1696 6.65859 10.8405 6.15928 10.3411C5.65997 9.84184 5.33081 9.1978 5.21863 8.50064C5.10645 7.80347 5.21695 7.08869 5.53442 6.45795C5.85189 5.82721 6.36016 5.31263 6.98693 4.98741ZM12.4308 3.56975C12.1547 3.56975 11.9308 3.79361 11.9308 4.06975C11.9308 4.3459 12.1547 4.56975 12.4308 4.56975H12.4376C12.7138 4.56975 12.9376 4.3459 12.9376 4.06975C12.9376 3.79361 12.7138 3.56975 12.4376 3.56975H12.4308Z" fill="#C3C6B6"/>
</svg>
