<svg width="50" height="50" viewBox="0 0 50 50" fill="none" xmlns="http://www.w3.org/2000/svg">
<path d="M11.7248 43.0039C8.49864 43.0039 5.88283 41.861 3.87738 39.5753C1.95913 37.2017 1 34.1248 1 30.3446C1 25.4215 2.43869 20.8501 5.31608 16.6303C8.19346 12.3226 11.7684 9.1138 16.0409 7.00391L16.8256 8.58632C14.9945 9.99292 13.3815 11.7951 11.9864 13.9929C10.5913 16.1907 9.58856 18.916 8.9782 22.1687L11.7248 22.8281C14.7766 23.5314 17.1308 24.8501 18.7875 26.7841C20.5313 28.6303 21.4033 30.872 21.4033 33.5094C21.4033 36.3226 20.4441 38.6083 18.5259 40.3665C16.6948 42.1248 14.4278 43.0039 11.7248 43.0039ZM39.3215 43.0039C36.0954 43.0039 33.4796 41.861 31.4741 39.5753C29.5559 37.2017 28.5967 34.1248 28.5967 30.3446C28.5967 25.4215 30.0354 20.8501 32.9128 16.6303C35.7902 12.3226 39.3651 9.1138 43.6376 7.00391L44.4223 8.58632C42.5913 9.99292 40.9782 11.7951 39.5831 13.9929C38.188 16.1907 37.1853 18.916 36.5749 22.1687L39.3215 22.8281C42.3733 23.5314 44.7275 24.8501 46.3842 26.7841C48.1281 28.6303 49 30.872 49 33.5094C49 36.3226 48.0409 38.6083 46.1226 40.3665C44.2916 42.1248 42.0245 43.0039 39.3215 43.0039Z" fill="#192E29"/>
</svg>
