<svg width="20" height="16" viewBox="0 0 20 16" fill="none" xmlns="http://www.w3.org/2000/svg">
<g clip-path="url(#clip0_4704_9028)">
<path fill-rule="evenodd" clip-rule="evenodd" d="M9.55461 1.4375C9.55466 1.4375 9.55469 1.4375 9.55469 1.75L9.55465 2.0625L9.4936 2.06259C9.45343 2.06268 9.39424 2.06286 9.31836 2.06322C9.1666 2.06395 8.94813 2.06539 8.68164 2.06829C8.14853 2.07409 7.42384 2.08568 6.65689 2.10885C5.88943 2.13203 5.0822 2.16673 4.38325 2.21855C3.67711 2.27091 3.10799 2.33911 2.79831 2.42289C2.47839 2.51532 2.18743 2.6919 1.95497 2.9355C1.72422 3.17732 1.55925 3.47668 1.47687 3.80407C1.23103 5.1935 1.11078 6.6029 1.11764 8.01465L1.11766 8.0181C1.10888 9.4388 1.22882 10.8573 1.47598 12.2556C1.56685 12.5708 1.73488 12.8569 1.96389 13.0873C2.19606 13.3209 2.48305 13.4893 2.79695 13.5767C3.10632 13.6607 3.67607 13.729 4.38325 13.7814C5.0822 13.8333 5.88943 13.868 6.65689 13.8912C7.42384 13.9143 8.14853 13.9259 8.68164 13.9317C8.94813 13.9346 9.1666 13.9361 9.31836 13.9368C9.39424 13.9371 9.45343 13.9373 9.4936 13.9374L9.55448 13.9375L9.55469 14.25C9.55469 14.5625 9.55466 14.5625 9.55461 14.5625L9.49219 14.5624C9.45153 14.5623 9.39182 14.5621 9.31538 14.5618C9.16252 14.561 8.94277 14.5596 8.67484 14.5567C8.13912 14.5508 7.41019 14.5392 6.63802 14.5159C5.86635 14.4926 5.04895 14.4575 4.33704 14.4047C3.63399 14.3526 3.00703 14.2815 2.63216 14.1796L2.6304 14.1791C2.211 14.0625 1.82884 13.838 1.52062 13.5279C1.21243 13.2179 0.988568 12.8328 0.870119 12.41C0.867377 12.4002 0.865115 12.3903 0.863339 12.3803C0.607796 10.9402 0.483704 9.47922 0.492638 8.01597C0.485682 6.56365 0.609766 5.11373 0.863337 3.68442C0.864535 3.67766 0.865956 3.67095 0.867596 3.66429C0.975025 3.228 1.19395 2.8277 1.50281 2.50403C1.81171 2.18032 2.19967 1.94472 2.62776 1.8216L2.63215 1.82034C3.00702 1.71843 3.63399 1.64739 4.33704 1.59526C5.04895 1.54248 5.86635 1.50744 6.63802 1.48413C7.41019 1.46081 8.13912 1.44916 8.67484 1.44333C8.94277 1.44042 9.16252 1.43896 9.31538 1.43823C9.39182 1.43787 9.45153 1.43768 9.49219 1.43759L9.55461 1.4375ZM16.3111 13.5771C16.0014 13.6609 15.4323 13.7291 14.7261 13.7814C14.0272 13.8333 13.2199 13.868 12.4525 13.8912C11.6855 13.9143 10.9609 13.9259 10.4277 13.9317C10.1612 13.9346 9.94277 13.9361 9.79101 13.9368C9.71514 13.9371 9.65595 13.9373 9.61578 13.9374L9.55448 13.9375L9.55469 14.25C9.55469 14.5625 9.55466 14.5625 9.55461 14.5625L9.61718 14.5624C9.65784 14.5623 9.71756 14.5621 9.794 14.5618C9.94685 14.561 10.1666 14.5596 10.4345 14.5567C10.9703 14.5508 11.6992 14.5392 12.4714 14.5159C13.243 14.4926 14.0604 14.4575 14.7723 14.4047C15.4754 14.3526 16.1023 14.2815 16.4772 14.1796L16.4816 14.1784C16.9097 14.0553 17.2977 13.8197 17.6066 13.496C17.9154 13.1723 18.1344 12.772 18.2418 12.3357C18.2434 12.329 18.2448 12.3223 18.246 12.3156C18.4977 10.897 18.6217 9.45806 18.6167 8.01663C18.6257 6.55329 18.5016 5.09222 18.246 3.65206L17.9383 3.70666L18.2418 3.63195C18.1344 3.19566 17.9154 2.79536 17.6066 2.47168C17.2977 2.14798 16.9097 1.91237 16.4816 1.78926C16.4779 1.7882 16.4742 1.78721 16.4705 1.78629C16.0981 1.69386 15.4735 1.62908 14.7703 1.58148C14.059 1.53332 13.242 1.50134 12.4705 1.48007C11.6986 1.45878 10.9698 1.44814 10.4342 1.44282C10.1664 1.44016 9.94668 1.43883 9.79387 1.43817C9.71746 1.43783 9.65776 1.43767 9.61712 1.43758L9.55461 1.4375C9.55466 1.4375 9.55469 1.4375 9.55469 1.75L9.55465 2.0625L9.61584 2.06258C9.65603 2.06266 9.71524 2.06283 9.79114 2.06316C9.94295 2.06382 10.1615 2.06514 10.428 2.06779C10.9613 2.07308 11.6861 2.08367 12.4533 2.10483C13.221 2.126 14.0286 2.1577 14.7281 2.20505C15.4316 2.25267 16.0015 2.31478 16.3144 2.3915C16.633 2.48419 16.9227 2.6604 17.1544 2.90316C17.3852 3.14498 17.5501 3.44434 17.6325 3.77173C17.8803 5.17165 18.0005 6.59183 17.9917 8.01424L17.9917 8.01728C17.9967 9.41837 17.8765 10.817 17.6325 12.1959C17.5501 12.5233 17.3852 12.8227 17.1544 13.0645C16.9219 13.3081 16.631 13.4847 16.3111 13.5771Z" fill="#C3C6B6"/>
<path fill-rule="evenodd" clip-rule="evenodd" d="M7.5154 5.23417C7.60753 5.17723 7.72257 5.17206 7.81944 5.22049L12.8194 7.72049C12.9253 7.77343 12.9922 7.88163 12.9922 8C12.9922 8.11837 12.9253 8.22657 12.8194 8.27951L7.81944 10.7795C7.72257 10.8279 7.60753 10.8228 7.5154 10.7658C7.42327 10.7089 7.36719 10.6083 7.36719 10.5V5.5C7.36719 5.39169 7.42327 5.29111 7.5154 5.23417ZM7.99219 6.00564V9.99436L11.9809 8L7.99219 6.00564Z" fill="#C3C6B6"/>
</g>
<defs>
<clipPath id="clip0_4704_9028">
<rect width="19.375" height="15" fill="white" transform="translate(0.179688 0.5)"/>
</clipPath>
</defs>
</svg>
